<?xml version="1.0" encoding="utf-8"?>
<!-- Generator: Adobe Illustrator 21.0.0, SVG Export Plug-In . SVG Version: 6.00 Build 0)  -->
<svg version="1.1" id="Layer_21" xmlns="http://www.w3.org/2000/svg" xmlns:xlink="http://www.w3.org/1999/xlink" x="0px" y="0px"
	 viewBox="0 0 24 24" style="enable-background:new 0 0 24 24;" xml:space="preserve">
<style type="text/css">
	.st0{fill:#FFFFFF;}
</style>
<title></title>
<path class="st0" d="M22,14c0-4.2-2.6-5-4.5-5c-2.4-0.1-4.4,1.7-4.6,4c0,0.2,0,0.4,0,0.6c0,3.8,2.1,5,4.8,5c1.9,0.1,3.6-1.1,4.2-2.9
	h-2.6c-0.3,0.6-0.9,1.1-1.6,1c-1.1,0.1-2.1-0.7-2.2-1.9c0-0.1,0-0.2,0-0.3H22V14z M15.5,13c0.1-1.2,0.8-2.1,2-2.1c1.1,0,2,1,1.9,2.1
	H15.5z"/>
<rect x="15" y="6.6" class="st0" width="5" height="1.4"/>
<path class="st0" d="M10.3,11.7c1-0.4,1.6-1.4,1.5-2.5C11.8,7.9,11,6,8,6H2v12.4h5.2c2.5,0,3.2-0.4,3.9-1.1c0.7-0.7,1.1-1.6,1.1-2.6
	C12.3,13.4,11.6,12.1,10.3,11.7z M4.5,8H8c0.8,0,1.5,0.7,1.5,1.5S8.8,11,8,11H4.5V8z M8.2,16H4.5v-3h3.8c0.8,0,1.5,0.7,1.5,1.5
	S9.1,16,8.2,16z"/>
</svg>
