<?xml version="1.0" encoding="utf-8"?>
<!-- Generator: Adobe Illustrator 21.0.0, SVG Export Plug-In . SVG Version: 6.00 Build 0)  -->
<svg version="1.1" id="Social_Icons" xmlns="http://www.w3.org/2000/svg" xmlns:xlink="http://www.w3.org/1999/xlink" x="0px"
	 y="0px" viewBox="0 0 128 128" style="enable-background:new 0 0 128 128;" xml:space="preserve">
<style type="text/css">
	.st0{fill:none;}
	.st1{fill:#FFFFFF;}
</style>
<g id="_x36__stroke">
	<g id="Codepen">
		<rect class="st0" width="128" height="128"/>
		<path id="Codepen_1_" class="st1" d="M117,73.2L103.2,64l13.8-9.2V73.2z M69.5,112.2V86.6l23.8-15.9l19.2,12.9L69.5,112.2z M64,77
			L44.5,64L64,51l19.5,13L64,77z M58.5,112.2L15.4,83.5l19.3-12.9l23.8,15.9V112.2z M11,54.8L24.8,64L11,73.2V54.8z M58.5,15.8v25.7
			l-23.8,16L15.4,44.5L58.5,15.8z M69.5,15.8l43.1,28.7L93.3,57.4l-23.8-16V15.8z M128,43.8c0-0.1,0-0.2,0-0.2
			c0-0.2-0.1-0.3-0.1-0.5c0-0.1-0.1-0.2-0.1-0.3c0-0.1-0.1-0.3-0.1-0.4c0-0.1-0.1-0.2-0.1-0.3c-0.1-0.1-0.1-0.2-0.2-0.4
			c0-0.1-0.1-0.2-0.2-0.3c-0.1-0.1-0.1-0.2-0.2-0.3c-0.1-0.1-0.1-0.2-0.2-0.2c-0.1-0.1-0.2-0.2-0.3-0.3c-0.1-0.1-0.1-0.1-0.2-0.2
			c-0.1-0.1-0.2-0.2-0.3-0.3c-0.1-0.1-0.2-0.1-0.2-0.2c0,0-0.1,0-0.1-0.1l-58.5-39c-1.8-1.2-4.3-1.2-6.1,0l-58.5,39
			c0,0-0.1,0-0.1,0.1c-0.1,0.1-0.2,0.1-0.2,0.2c-0.1,0.1-0.2,0.2-0.3,0.3c-0.1,0.1-0.1,0.1-0.2,0.2c-0.1,0.1-0.2,0.2-0.3,0.3
			c-0.1,0.1-0.1,0.2-0.2,0.2C1,41.3,1,41.4,0.9,41.5c-0.1,0.1-0.1,0.2-0.2,0.3c-0.1,0.1-0.1,0.2-0.2,0.4c0,0.1-0.1,0.2-0.1,0.3
			c-0.1,0.1-0.1,0.3-0.1,0.4c0,0.1-0.1,0.2-0.1,0.3c0,0.1-0.1,0.3-0.1,0.5c0,0.1,0,0.2,0,0.2C0,44,0,44.3,0,44.5v39
			c0,0.2,0,0.5,0.1,0.7c0,0.1,0,0.2,0,0.2c0,0.2,0.1,0.3,0.1,0.5c0,0.1,0.1,0.2,0.1,0.3c0,0.1,0.1,0.3,0.1,0.4
			c0,0.1,0.1,0.2,0.1,0.3c0.1,0.1,0.1,0.2,0.2,0.4c0.1,0.1,0.1,0.2,0.2,0.3C1,86.6,1,86.7,1.1,86.8C1.2,86.9,1.2,87,1.3,87
			c0.1,0.1,0.2,0.2,0.3,0.3c0.1,0.1,0.1,0.1,0.2,0.2c0.1,0.1,0.2,0.2,0.3,0.3c0.1,0.1,0.2,0.1,0.2,0.2c0,0,0.1,0,0.1,0.1l58.5,39
			c0.9,0.6,2,0.9,3.1,0.9c1.1,0,2.1-0.3,3.1-0.9l58.5-39c0,0,0.1,0,0.1-0.1c0.1-0.1,0.2-0.1,0.2-0.2c0.1-0.1,0.2-0.2,0.3-0.3
			c0.1-0.1,0.1-0.1,0.2-0.2c0.1-0.1,0.2-0.2,0.3-0.3c0.1-0.1,0.1-0.2,0.2-0.2c0.1-0.1,0.2-0.2,0.2-0.3c0.1-0.1,0.1-0.2,0.2-0.3
			c0.1-0.1,0.1-0.2,0.2-0.4c0-0.1,0.1-0.2,0.1-0.3c0.1-0.1,0.1-0.3,0.1-0.4c0-0.1,0.1-0.2,0.1-0.3c0-0.2,0.1-0.3,0.1-0.5
			c0-0.1,0-0.2,0-0.2c0-0.2,0-0.5,0-0.7v-39C128,44.3,128,44,128,43.8z"/>
	</g>
</g>
</svg>
