<?xml version="1.0" encoding="utf-8"?>
<!-- Generator: Adobe Illustrator 21.0.0, SVG Export Plug-In . SVG Version: 6.00 Build 0)  -->
<svg version="1.1" id="Layer_21" xmlns="http://www.w3.org/2000/svg" xmlns:xlink="http://www.w3.org/1999/xlink" x="0px" y="0px"
	 viewBox="0 0 24 24" style="enable-background:new 0 0 24 24;" xml:space="preserve">
<style type="text/css">
	.st0{fill:#FFFFFF;}
</style>
<title></title>
<path class="st0" d="M12,3c-5,0-9,4-9,9s4,9,9,9s9-4,9-9S17,3,12,3z M19.5,11.9c-1.1-0.3-2.2-0.4-3.4-0.4c-0.6,0-1.1,0-1.7,0.1
	c0,0-0.1,0-0.1,0c-0.2-0.5-0.4-0.9-0.6-1.3c1.6-0.7,3-1.7,4.1-3C18.9,8.6,19.5,10.2,19.5,11.9z M16.7,6.2c-1,1.2-2.3,2.1-3.7,2.7
	c-0.8-1.5-1.7-2.9-2.8-4.2C12.5,4.2,14.9,4.7,16.7,6.2z M8.7,5.3c1.1,1.3,2,2.7,2.8,4.2C9.4,10,7.2,10.3,5,10.3c-0.1,0-0.2,0-0.3,0
	C5.2,8.1,6.7,6.2,8.7,5.3z M4.5,12c0-0.1,0-0.2,0-0.3c0.2,0,0.3,0,0.5,0c2.5,0,4.9-0.3,7.3-1c0.2,0.4,0.4,0.8,0.5,1.2
	c-2.7,0.9-4.9,2.6-6.5,5C5.2,15.6,4.5,13.8,4.5,12z M7.5,18c1.3-2.2,3.4-3.8,5.9-4.6c0.7,1.8,1.1,3.7,1.4,5.6
	C12.3,19.9,9.5,19.6,7.5,18z M16.2,18.2c-0.3-1.8-0.7-3.5-1.3-5.2c0.4-0.1,0.9-0.1,1.3-0.1c1.1,0,2.1,0.2,3.2,0.4
	C19,15.4,17.8,17.1,16.2,18.2L16.2,18.2z"/>
</svg>
