<?xml version="1.0" encoding="utf-8"?>
<!-- Generator: Adobe Illustrator 21.0.0, SVG Export Plug-In . SVG Version: 6.00 Build 0)  -->
<svg version="1.1" id="Layer_21" xmlns="http://www.w3.org/2000/svg" xmlns:xlink="http://www.w3.org/1999/xlink" x="0px" y="0px"
	 viewBox="0 0 24 24" style="enable-background:new 0 0 24 24;" xml:space="preserve">
<style type="text/css">
	.st0{fill:#FFFFFF;}
</style>
<title></title>
<path class="st0" d="M15.5,3h-7C5.5,3,3,5.5,3,8.5v7c0,3,2.5,5.5,5.5,5.5h7c3,0,5.5-2.5,5.5-5.5v-7C21,5.5,18.5,3,15.5,3z
	 M19.5,15.5c0,2.2-1.8,4-4,4h-7c-2.2,0-4-1.8-4-4v-7c0-2.2,1.8-4,4-4h7c2.2,0,4,1.8,4,4V15.5z"/>
<path class="st0" d="M12,7.5c-2.5,0-4.5,2-4.5,4.5s2,4.5,4.5,4.5s4.5-2,4.5-4.5S14.5,7.5,12,7.5z M12,15c-1.7,0-3-1.3-3-3s1.3-3,3-3
	s3,1.3,3,3S13.7,15,12,15z"/>
<circle class="st0" cx="16.7" cy="7.3" r="1"/>
</svg>
