<?xml version="1.0" encoding="utf-8"?>
<!-- Generator: Adobe Illustrator 21.0.0, SVG Export Plug-In . SVG Version: 6.00 Build 0)  -->
<svg version="1.1" id="Calque_1" xmlns="http://www.w3.org/2000/svg" xmlns:xlink="http://www.w3.org/1999/xlink" x="0px" y="0px"
	 viewBox="0 0 40 22" style="enable-background:new 0 0 40 22;" xml:space="preserve">
<style type="text/css">
	.st0{fill:#FFFFFF;}
</style>
<title>Group 6 Copy</title>
<desc>Created with Sketch.</desc>
<g id="Symbols">
	<g id="arrow-nav" transform="translate(20.000000, -1.000000)">
		<g id="Group-6-Copy" transform="translate(-20.000000, 0.000000)">
			<g transform="translate(20.000000, 11.582563) scale(1, -1) translate(-20.000000, -11.582563) translate(0.000000, 0.582563)">
				
					<g id="Group" transform="translate(19.978560, 10.563606) scale(-1, 1) rotate(90.000000) translate(-19.978560, -10.563606) translate(9.478560, -8.936394)">
					<path id="Shape" class="st0" d="M0.8,18.7c0.2,0,0.4,0.1,0.6,0.2l19.2,18.6c0.3,0.3,0.3,0.8,0,1.1s-0.8,0.3-1.1,0L0.3,20.1
						C0,19.8,0,19.3,0.3,19C0.4,18.8,0.6,18.7,0.8,18.7z"/>
					<path id="Shape_1_" class="st0" d="M20,0.1c0.2,0,0.4,0.1,0.6,0.2c0.3,0.3,0.3,0.8,0,1.1L1.4,20.1c-0.3,0.3-0.8,0.3-1.1,0
						s-0.3-0.8,0-1.1L19.5,0.3C19.6,0.1,19.8,0.1,20,0.1z"/>
				</g>
			</g>
		</g>
	</g>
</g>
</svg>
