<?xml version="1.0" encoding="utf-8"?>
<!-- Generator: Adobe Illustrator 21.0.0, SVG Export Plug-In . SVG Version: 6.00 Build 0)  -->
<svg version="1.1" id="Layer_1" xmlns="http://www.w3.org/2000/svg" xmlns:xlink="http://www.w3.org/1999/xlink" x="0px" y="0px"
	 viewBox="0 0 256 256" style="enable-background:new 0 0 256 256;" xml:space="preserve">
<style type="text/css">
	.st0{fill:#FFFFFF;}
</style>
<path class="st0" d="M137.1,128l75.5-75.5c2.5-2.5,2.5-6.6,0-9.1s-6.6-2.5-9.1,0L128,118.9L52.5,43.5C50,41,46,41,43.5,43.5
	s-2.5,6.6,0,9.1l75.5,75.5l-75.5,75.5c-2.5,2.5-2.5,6.6,0,9.1c1.2,1.2,2.9,1.9,4.5,1.9s3.3-0.6,4.5-1.9l75.5-75.5l75.5,75.5
	c1.2,1.2,2.9,1.9,4.5,1.9s3.3-0.6,4.5-1.9c2.5-2.5,2.5-6.6,0-9.1L137.1,128z"/>
</svg>
